<svg id="Layer_1" enable-background="new 0 0 512 512" height="512" viewBox="0 0 512 512" width="512" xmlns="http://www.w3.org/2000/svg" xmlns:xlink="http://www.w3.org/1999/xlink"><linearGradient id="SVGID_1_" gradientUnits="userSpaceOnUse" x1="0" x2="512" y1="256" y2="256"><stop offset="0" stop-color="#00f2fe"/><stop offset=".0208" stop-color="#03effe"/><stop offset=".2931" stop-color="#24d2fe"/><stop offset=".5538" stop-color="#3cbdfe"/><stop offset=".7956" stop-color="#4ab0fe"/><stop offset="1" stop-color="#4facfe"/></linearGradient><path d="m512 256c0 50.531-14.999 99.674-43.374 142.116-6.139 9.183-18.559 11.651-27.742 5.511-9.183-6.139-11.65-18.56-5.511-27.742 23.962-35.841 36.627-77.296 36.627-119.885 0-119.103-96.897-216-216-216s-216 96.897-216 216 96.897 216 216 216c39.505 0 78.143-10.756 111.738-31.106 9.446-5.724 21.746-2.704 27.468 6.745 5.723 9.447 2.703 21.745-6.745 27.468-39.844 24.136-85.648 36.893-132.461 36.893-68.38 0-132.667-26.629-181.02-74.98-48.351-48.353-74.98-112.64-74.98-181.02s26.629-132.667 74.98-181.02c48.353-48.351 112.64-74.98 181.02-74.98s132.667 26.629 181.02 74.98c48.351 48.353 74.98 112.64 74.98 181.02zm-275-61v-37c0-11.046-8.954-20-20-20s-20 8.954-20 20v37c0 .901-.443 9.396-15.781 30.025-1.352 1.818-2.709 3.581-4.042 5.263-10.581-13.854-19.177-28.389-19.177-35.288v-37c0-11.046-8.954-20-20-20s-20 8.954-20 20v37c0 14.832 7.631 32.525 23.331 54.091 2.025 2.782 4.047 5.434 5.994 7.909-1.947 2.475-3.969 5.127-5.994 7.909-15.7 21.566-23.331 39.259-23.331 54.091v36c0 11.046 8.954 20 20 20s20-8.954 20-20v-36c0-6.899 8.598-21.436 19.177-35.289 1.332 1.683 2.69 3.445 4.042 5.263 15.338 20.63 15.781 29.125 15.781 30.026v36c0 11.046 8.954 20 20 20s20-8.954 20-20v-36c0-14.922-7.842-32.679-23.974-54.285-2.022-2.709-4.042-5.296-5.99-7.715 1.948-2.419 3.968-5.006 5.99-7.715 16.132-21.606 23.974-39.363 23.974-54.285zm159 0v-37c0-11.046-8.954-20-20-20s-20 8.954-20 20v37c0 .901-.443 9.396-15.781 30.025-1.352 1.818-2.709 3.581-4.042 5.263-10.581-13.854-19.177-28.389-19.177-35.288v-37c0-11.046-8.954-20-20-20s-20 8.954-20 20v37c0 14.832 7.631 32.525 23.331 54.091 2.025 2.782 4.047 5.434 5.994 7.909-1.947 2.475-3.969 5.127-5.994 7.909-15.7 21.566-23.331 39.259-23.331 54.091v36c0 11.046 8.954 20 20 20s20-8.954 20-20v-36c0-6.899 8.598-21.436 19.177-35.289 1.332 1.683 2.69 3.445 4.042 5.263 15.338 20.63 15.781 29.125 15.781 30.026v36c0 11.046 8.954 20 20 20s20-8.954 20-20v-36c0-14.922-7.842-32.679-23.974-54.285-2.022-2.709-4.042-5.296-5.99-7.715 1.948-2.419 3.968-5.006 5.99-7.715 16.132-21.606 23.974-39.363 23.974-54.285z" fill="url(#SVGID_1_)"/></svg>